<?xml version="1.0" encoding="UTF-8" standalone="no"?>
<!DOCTYPE svg PUBLIC "-//W3C//DTD SVG 1.1//EN" "http://www.w3.org/Graphics/SVG/1.1/DTD/svg11.dtd">
<svg version="1.1" xmlns="http://www.w3.org/2000/svg" xmlns:xlink="http://www.w3.org/1999/xlink" preserveAspectRatio="xMidYMid meet" viewBox="0 0 640 640" width="640" height="640"><defs><path d="M220.03 96.47L220.17 96.49L220.31 96.51L220.45 96.53L220.59 96.57L220.72 96.6L220.85 96.64L220.98 96.69L221.11 96.74L221.24 96.8L221.36 96.86L221.48 96.92L221.6 96.99L221.71 97.07L221.82 97.15L221.93 97.23L222.03 97.31L222.13 97.41L222.23 97.5L222.32 97.6L222.41 97.7L222.5 97.8L222.58 97.91L222.66 98.02L222.73 98.14L222.8 98.25L222.87 98.38L222.93 98.5L222.99 98.62L223.04 98.75L223.08 98.88L223.12 99.02L223.16 99.15L223.19 99.29L223.22 99.43L223.24 99.57L223.25 99.71L223.26 99.85L223.26 100L223.26 170.74L293.65 170.74L293.8 170.74L293.94 170.75L294.08 170.77L294.22 170.79L294.36 170.81L294.5 170.84L294.63 170.88L294.77 170.92L294.9 170.97L295.02 171.02L295.15 171.07L295.27 171.14L295.39 171.2L295.51 171.27L295.62 171.35L295.73 171.42L295.84 171.51L295.94 171.59L296.04 171.68L296.14 171.78L296.24 171.88L296.33 171.98L296.41 172.08L296.49 172.19L296.57 172.3L296.65 172.42L296.71 172.53L296.78 172.65L296.84 172.78L296.9 172.9L296.95 173.03L296.99 173.16L297.03 173.29L297.07 173.43L297.1 173.57L297.13 173.7L297.15 173.85L297.16 173.99L297.17 174.13L297.17 174.28L297.17 230.87L297.17 231.02L297.16 231.16L297.15 231.3L297.13 231.44L297.1 231.58L297.07 231.72L297.03 231.85L296.99 231.99L296.95 232.12L296.9 232.25L296.84 232.37L296.78 232.5L296.71 232.62L296.65 232.73L296.57 232.85L296.49 232.96L296.41 233.07L296.33 233.17L296.24 233.27L296.14 233.37L296.04 233.47L295.94 233.56L295.84 233.64L295.73 233.72L295.62 233.8L295.51 233.88L295.39 233.95L295.27 234.01L295.15 234.07L295.02 234.13L294.9 234.18L294.77 234.23L294.63 234.27L294.5 234.3L294.36 234.34L294.22 234.36L294.08 234.38L293.94 234.4L293.8 234.4L293.65 234.41L223.26 234.41L223.26 305.15L223.26 305.29L223.25 305.44L223.24 305.58L223.22 305.72L223.19 305.86L223.16 306L223.12 306.13L223.08 306.27L223.04 306.4L222.99 306.52L222.93 306.65L222.87 306.77L222.8 306.89L222.73 307.01L222.66 307.13L222.58 307.24L222.5 307.34L222.41 307.45L222.32 307.55L222.23 307.65L222.13 307.74L222.03 307.83L221.93 307.92L221.82 308L221.71 308.08L221.6 308.15L221.48 308.22L221.36 308.29L221.24 308.35L221.11 308.41L220.98 308.46L220.85 308.5L220.72 308.55L220.59 308.58L220.45 308.61L220.31 308.64L220.17 308.66L220.03 308.67L219.89 308.68L219.74 308.69L163.43 308.69L163.29 308.68L163.14 308.67L163 308.66L162.86 308.64L162.72 308.61L162.58 308.58L162.45 308.55L162.32 308.5L162.19 308.46L162.06 308.41L161.94 308.35L161.81 308.29L161.69 308.22L161.58 308.15L161.46 308.08L161.35 308L161.24 307.92L161.14 307.83L161.04 307.74L160.94 307.65L160.85 307.55L160.76 307.45L160.67 307.34L160.59 307.24L160.51 307.13L160.44 307.01L160.37 306.89L160.3 306.77L160.24 306.65L160.19 306.52L160.14 306.4L160.09 306.27L160.05 306.13L160.01 306L159.98 305.86L159.96 305.72L159.94 305.58L159.92 305.44L159.91 305.29L159.91 305.15L159.91 234.41L89.52 234.41L89.37 234.4L89.23 234.4L89.09 234.38L88.95 234.36L88.81 234.34L88.67 234.3L88.54 234.27L88.41 234.23L88.28 234.18L88.15 234.13L88.03 234.07L87.9 234.01L87.78 233.95L87.67 233.88L87.55 233.8L87.44 233.72L87.33 233.64L87.23 233.56L87.13 233.47L87.03 233.37L86.94 233.27L86.85 233.17L86.76 233.07L86.68 232.96L86.6 232.85L86.53 232.73L86.46 232.62L86.39 232.5L86.33 232.37L86.28 232.25L86.23 232.12L86.18 231.99L86.14 231.85L86.1 231.72L86.07 231.58L86.05 231.44L86.03 231.3L86.01 231.16L86 231.02L86 230.87L86 174.28L86 174.13L86.01 173.99L86.03 173.85L86.05 173.7L86.07 173.57L86.1 173.43L86.14 173.29L86.18 173.16L86.23 173.03L86.28 172.9L86.33 172.78L86.39 172.65L86.46 172.53L86.53 172.42L86.6 172.3L86.68 172.19L86.76 172.08L86.85 171.98L86.94 171.88L87.03 171.78L87.13 171.68L87.23 171.59L87.33 171.51L87.44 171.42L87.55 171.35L87.67 171.27L87.78 171.2L87.9 171.14L88.03 171.07L88.15 171.02L88.28 170.97L88.41 170.92L88.54 170.88L88.67 170.84L88.81 170.81L88.95 170.79L89.09 170.77L89.23 170.75L89.37 170.74L89.52 170.74L159.91 170.74L159.91 100L159.91 99.85L159.92 99.71L159.94 99.57L159.96 99.43L159.98 99.29L160.01 99.15L160.05 99.02L160.09 98.88L160.14 98.75L160.19 98.62L160.24 98.5L160.3 98.38L160.37 98.25L160.44 98.14L160.51 98.02L160.59 97.91L160.67 97.8L160.76 97.7L160.85 97.6L160.94 97.5L161.04 97.41L161.14 97.31L161.24 97.23L161.35 97.15L161.46 97.07L161.58 96.99L161.69 96.92L161.81 96.86L161.94 96.8L162.06 96.74L162.19 96.69L162.32 96.64L162.45 96.6L162.58 96.57L162.72 96.53L162.86 96.51L163 96.49L163.14 96.47L163.29 96.47L163.43 96.46L219.74 96.46L219.89 96.47L220.03 96.47Z" id="d5ypor69dV"></path><path d="M574.59 492.5L696.59 644L452.58 644L208.59 644L330.57 492.5L452.58 341L574.59 492.5Z" id="b2SzGqaS2m"></path><path d="M239 577.5L318 644L160 644L2 644L80.99 577.5L160 511L239 577.5Z" id="b2cbgw2rkK"></path><path d="M160 511L380 625L160 625L160 511Z" id="gVJTRLDrj"></path></defs><g><g><use xlink:href="#d5ypor69dV" opacity="1" fill="#ffffff" fill-opacity="1"></use></g><g><use xlink:href="#b2SzGqaS2m" opacity="1" fill="#ffffff" fill-opacity="1"></use></g><g><use xlink:href="#b2cbgw2rkK" opacity="1" fill="#ffffff" fill-opacity="1"></use></g><g><use xlink:href="#gVJTRLDrj" opacity="1" fill="#ffffff" fill-opacity="1"></use></g></g></svg>